<svg xmlns="http://www.w3.org/2000/svg" width="720" height="400" viewBox="0 0 720 400" role="img" aria-labelledby="t d"><title id="t">PROCESS DIAGRAM — NOT AN ACTUAL SCREEN</title><desc id="d">Three-step generic smartphone process diagram.</desc><defs><marker id="a" viewBox="0 0 10 10" refX="9" refY="5" markerWidth="7" markerHeight="7" orient="auto-start-reverse"><path d="M 0 0 L 10 5 L 0 10 z" fill="#6d8b94"/></marker></defs><rect width="720" height="400" rx="28" fill="#f3f8f7"/><rect x="276" y="34" width="168" height="286" rx="30" fill="#17353d"/><rect x="288" y="52" width="144" height="244" rx="20" fill="#eaf4f2"/><rect x="337" y="42" width="46" height="5" rx="2.5" fill="#78939b"/><text x="360" y="105" text-anchor="middle" font-size="13" fill="#386b7a">SMARTPHONE GUIDE</text><g transform="translate(72 176)"><rect width="146" height="76" rx="16" fill="#ffffff" stroke="#386b7a" stroke-width="2"/><circle cx="24" cy="24" r="13" fill="#eef8f6" stroke="#386b7a"/><text x="24" y="29" text-anchor="middle" font-size="13" font-weight="700" fill="#244d58">1</text><text x="73" y="49" text-anchor="middle" font-size="14" font-weight="700" fill="#15333b">BACKUP</text></g><g transform="translate(252 176)"><rect width="146" height="76" rx="16" fill="#ffffff" stroke="#386b7a" stroke-width="2"/><circle cx="24" cy="24" r="13" fill="#eef8f6" stroke="#386b7a"/><text x="24" y="29" text-anchor="middle" font-size="13" font-weight="700" fill="#244d58">2</text><text x="73" y="49" text-anchor="middle" font-size="14" font-weight="700" fill="#15333b">ERASE</text></g><g transform="translate(432 176)"><rect width="146" height="76" rx="16" fill="#ffffff" stroke="#386b7a" stroke-width="2"/><circle cx="24" cy="24" r="13" fill="#eef8f6" stroke="#386b7a"/><text x="24" y="29" text-anchor="middle" font-size="13" font-weight="700" fill="#244d58">3</text><text x="73" y="49" text-anchor="middle" font-size="14" font-weight="700" fill="#15333b">RESTORE</text></g><path d="M 218 214 H 244" stroke="#6d8b94" stroke-width="3" marker-end="url(#a)"/><path d="M 398 214 H 424" stroke="#6d8b94" stroke-width="3" marker-end="url(#a)"/><text x="360" y="355" text-anchor="middle" font-size="16" font-weight="700" fill="#244d58">PROCESS DIAGRAM — NOT AN ACTUAL SCREEN</text></svg>