<svg xmlns="http://www.w3.org/2000/svg" width="1200" height="630" viewBox="0 0 1200 630" role="img" aria-labelledby="t d"><title id="t">iPhone Background App Refresh Is Not Working</title><desc id="d">Original diagnostic flow. Actual screens vary by model and OS.</desc><rect width="1200" height="630" rx="36" fill="#f5f3ef"/><rect x="45" y="45" width="1110" height="540" rx="30" fill="#fff" stroke="#232323" stroke-width="2"/><rect x="80" y="80" width="360" height="470" rx="42" fill="#171717"/><rect x="100" y="105" width="320" height="420" rx="28" fill="#f8f8f8"/><rect x="125" y="150" width="270" height="78" rx="16" fill="#ffffff" stroke="#555"/><circle cx="155" cy="189" r="20" fill="#252525"/><text x="155" y="196" text-anchor="middle" font-family="Noto Sans Mono CJK JP, sans-serif" font-size="20" fill="white">1</text><text x="185" y="175" font-family="Noto Sans Mono CJK JP, sans-serif" font-size="14" fill="#111">Global and per-app</text><text x="185" y="196" font-family="Noto Sans Mono CJK JP, sans-serif" font-size="14" fill="#111">Background App Refresh</text><rect x="125" y="255" width="270" height="78" rx="16" fill="#ffffff" stroke="#555"/><circle cx="155" cy="294" r="20" fill="#252525"/><text x="155" y="301" text-anchor="middle" font-family="Noto Sans Mono CJK JP, sans-serif" font-size="20" fill="white">2</text><text x="185" y="280" font-family="Noto Sans Mono CJK JP, sans-serif" font-size="14" fill="#111">Low Power Mode and</text><text x="185" y="301" font-family="Noto Sans Mono CJK JP, sans-serif" font-size="14" fill="#111">battery state</text><rect x="125" y="360" width="270" height="78" rx="16" fill="#ffffff" stroke="#555"/><circle cx="155" cy="399" r="20" fill="#252525"/><text x="155" y="406" text-anchor="middle" font-family="Noto Sans Mono CJK JP, sans-serif" font-size="20" fill="white">3</text><text x="185" y="385" font-family="Noto Sans Mono CJK JP, sans-serif" font-size="14" fill="#111">Cellular access and Low</text><text x="185" y="406" font-family="Noto Sans Mono CJK JP, sans-serif" font-size="14" fill="#111">Data Mode</text><text x="490" y="110" font-family="Noto Sans Mono CJK JP, sans-serif" font-weight="700" font-size="27" fill="#111">iPhone Background App Refresh Is Not</text><text x="490" y="148" font-family="Noto Sans Mono CJK JP, sans-serif" font-weight="700" font-size="27" fill="#111">Working</text><circle cx="525" cy="275" r="24" fill="#242424"/><text x="525" y="283" text-anchor="middle" font-family="Noto Sans Mono CJK JP, sans-serif" font-size="22" fill="white">1</text><text x="565" y="283" font-family="Noto Sans Mono CJK JP, sans-serif" font-size="24" fill="#222">Record symptom</text><path d="M525 302 V337" stroke="#777" stroke-width="3"/><circle cx="525" cy="380" r="24" fill="#242424"/><text x="525" y="388" text-anchor="middle" font-family="Noto Sans Mono CJK JP, sans-serif" font-size="22" fill="white">2</text><text x="565" y="388" font-family="Noto Sans Mono CJK JP, sans-serif" font-size="24" fill="#222">Isolate setting</text><path d="M525 407 V442" stroke="#777" stroke-width="3"/><circle cx="525" cy="485" r="24" fill="#242424"/><text x="525" y="493" text-anchor="middle" font-family="Noto Sans Mono CJK JP, sans-serif" font-size="22" fill="white">3</text><text x="565" y="493" font-family="Noto Sans Mono CJK JP, sans-serif" font-size="24" fill="#222">Retest consistently</text><text x="490" y="535" font-family="Noto Sans Mono CJK JP, sans-serif" font-size="16" fill="#555">Original diagnostic flow. Actual screens vary by model and OS.</text></svg>